<?xml version="1.0" encoding="UTF-8" standalone="no"?>
<!-- Created with Inkscape (http://www.inkscape.org/) -->

<svg
   xmlns:dc="http://purl.org/dc/elements/1.1/"
   xmlns:cc="http://creativecommons.org/ns#"
   xmlns:rdf="http://www.w3.org/1999/02/22-rdf-syntax-ns#"
   xmlns:svg="http://www.w3.org/2000/svg"
   xmlns="http://www.w3.org/2000/svg"
   xmlns:sodipodi="http://sodipodi.sourceforge.net/DTD/sodipodi-0.dtd"
   xmlns:inkscape="http://www.inkscape.org/namespaces/inkscape"
   width="210mm"
   height="210mm"
   viewBox="0 0 744.09449 744.09448"
   id="svg2"
   version="1.1"
   inkscape:version="0.92.0 r15299"
   sodipodi:docname="Logo.svg"
   inkscape:export-filename="C:\Users\sxn002\nsetyo.snugroho@gmail.com\drawing2.png"
   inkscape:export-xdpi="4.4250507"
   inkscape:export-ydpi="4.4250507">
  <defs
     id="defs4" />
  <sodipodi:namedview
     id="base"
     pagecolor="#ffffff"
     bordercolor="#666666"
     borderopacity="1.0"
     inkscape:pageopacity="0"
     inkscape:pageshadow="2"
     inkscape:zoom="0.35"
     inkscape:cx="131.49966"
     inkscape:cy="279.39529"
     inkscape:document-units="px"
     inkscape:current-layer="layer3"
     showgrid="false"
     showguides="false"
     inkscape:window-width="1348"
     inkscape:window-height="717"
     inkscape:window-x="8"
     inkscape:window-y="24"
     inkscape:window-maximized="0" />
  <metadata
     id="metadata7">
    <rdf:RDF>
      <cc:Work
         rdf:about="">
        <dc:format>image/svg+xml</dc:format>
        <dc:type
           rdf:resource="http://purl.org/dc/dcmitype/StillImage" />
        <dc:title />
      </cc:Work>
    </rdf:RDF>
  </metadata>
  <g
     inkscape:label="Layer 1"
     inkscape:groupmode="layer"
     id="layer1"
     transform="translate(0,-308.26772)"
     style="display:inline">
    <circle
       style="display:inline;fill:#112233;fill-opacity:1"
       id="path4147"
       cx="372.04724"
       cy="680.31494"
       r="325.42001" />
  </g>
  <g
     inkscape:groupmode="layer"
     id="layer2"
     inkscape:label="Layer 2"
     style="display:inline">
    <path
       inkscape:connector-curvature="0"
       style="fill:#fc575e;fill-opacity:1"
       d="M 342.5154,678.93909 C 305.08694,675.1166 248.86378,656.2085 220.50458,637.90625 194.98109,621.43413 187.14115,615.37612 167.93009,597.28141 117.161,549.46252 85.453399,491.63214 73.67003,425.36371 68.663906,397.20983 68.707047,350.08293 73.764851,321.66349 88.755218,237.43564 138.3925,161.73444 208.73149,115.82768 303.38236,54.053746 424.88068,48.413836 522.90713,101.24375 c 21.29,11.47394 48.5301,31.09734 59.34873,42.75403 l 7.49189,8.07226 -8.56217,-6.37505 C 541.90153,116.44571 496.47422,97.389453 445.26125,88.676249 417.01882,83.871184 357.79441,85.566021 331.81257,91.922813 258.67139,109.81775 202.72664,145.60138 159.85706,201.90974 c -27.39074,35.97723 -46.78518,80.31677 -53.76968,122.92824 -4.19035,25.56479 -4.27996,74.38204 -0.1792,97.63155 7.30796,41.43292 23.61092,82.08862 46.21806,115.25679 14.69341,21.55747 48.65879,56.06691 70.45276,71.5812 34.0964,24.27193 78.05857,42.83405 121.00656,51.0925 26.82064,5.15734 78.46323,5.19575 107.02702,0.0795 25.38578,-4.54692 59.46016,-15.22318 77.8003,-24.37651 7.24498,-3.61591 13.17269,-6.17501 13.17269,-5.68687 0,1.85374 -31.40306,19.58575 -48.39855,26.48875 -23.63816,9.60108 -49.67675,16.80425 -73.61227,20.39827 -18.39251,2.76171 -57.83646,3.59904 -77.05947,1.63586 z"
       id="path4144" />
    <path
       inkscape:connector-curvature="0"
       style="fill:#44bbff;fill-opacity:1"
       d="M 344.11913,648.56489 C 249.48139,630.90808 170.08558,564.92934 136.5911,476.10697 c -8.21285,-21.77929 -6.50119,-21.79556 4.45705,-0.0423 46.40473,92.11794 141.59602,151.7872 242.09073,151.75101 130.13436,-0.047 239.1133,-90.89343 261.58086,-218.05786 4.06618,-23.01413 3.57023,-70.93551 -0.97517,-94.22619 -16.34136,-83.73336 -68.89445,-152.78965 -145.74372,-191.51145 -17.9601,-9.0495 -54.13672,-20.93638 -75.35238,-24.759261 l -17.35777,-3.127713 13.85737,-0.195684 c 26.5426,-0.374832 73.8263,12.280688 105.43006,28.218368 36.12573,18.21814 81.03508,57.90642 102.34542,90.44694 20.94808,31.98729 35.10061,65.44493 43.07446,101.83102 5.88691,26.86305 5.43703,87.18739 -0.85044,114.04029 -26.96469,115.16185 -113.34492,198.09659 -226.99323,217.93902 -23.6149,4.12303 -76.3126,4.20463 -98.03521,0.15178 z"
       id="path4142" />
    <g
       transform="matrix(1.1468323,0,0,1.1940909,-54.628546,-440.31064)"
       id="g4139">
      <path
         inkscape:connector-curvature="0"
         id="path4140"
         d="m 348.77353,827.32075 c -15.67975,-2.19871 -36.37397,-8.10271 -50.51154,-14.41076 -12.15605,-5.42392 -33.20133,-19.1732 -33.20133,-21.69107 0,-0.67945 2.00211,-2.49476 4.44913,-4.034 4.29104,-2.69919 4.74787,-2.57976 12.85381,3.36027 37.85886,27.74299 109.46518,35.18187 151.19063,15.70656 22.3356,-10.42512 39.85279,-30.71759 46.16624,-53.48046 2.97025,-10.70904 3.21563,-32.05861 0.51157,-44.50704 -4.70466,-21.65826 -19.39472,-41.99242 -38.15932,-52.82055 -14.90839,-8.60292 -31.94337,-12.30383 -56.64804,-12.30702 -24.13968,-0.003 -31.36627,-2.38633 -36.56277,-12.05774 -4.74827,-8.83726 -3.2792,-21.03406 3.33132,-27.65812 6.66054,-6.67415 14.17956,-8.50185 35.02381,-8.51351 19.73149,-0.01 35.67936,2.42325 44.57333,6.8037 l 6.18879,3.04812 -4.71017,2.96283 c -4.19211,2.63696 -5.8553,2.72048 -15.12127,0.75912 -5.72609,-1.21205 -19.3302,-2.24439 -30.23135,-2.29408 -24.32652,-0.11082 -29.53306,2.11118 -29.53306,12.60422 0,10.7367 2.59671,11.7579 32.30399,12.70392 29.91474,0.95262 45.43322,4.97666 62.36465,16.17158 47.21158,31.2159 56.03575,104.59624 17.61344,146.47053 -25.12072,27.37763 -72.0964,40.16615 -121.89186,33.1835 z"
         style="fill:#112233;fill-opacity:1" />
      <path
         inkscape:connector-curvature="0"
         id="path4138"
         d="m 359.9568,803.42432 c -17.58184,-1.70686 -30.00663,-4.58875 -45.05655,-10.45068 -12.69155,-4.94337 -30.09826,-14.8624 -30.09826,-17.15119 0,-0.73983 1.95733,-2.57638 4.34964,-4.08119 4.13854,-2.60328 4.85708,-2.44269 14.806,3.30876 21.06066,12.17512 55.43722,19.25216 83.14034,17.11591 25.92673,-1.99925 44.41578,-9.94888 56.21461,-24.17025 20.24039,-24.39618 17.04561,-63.88971 -6.88107,-85.0628 -11.95696,-10.58092 -23.60012,-13.77509 -56.20157,-15.41831 -22.99414,-1.15898 -29.4382,-2.06891 -35.30663,-4.98556 -16.42764,-8.16463 -24.8796,-23.10414 -24.77225,-43.78697 0.14113,-27.17363 16.43508,-43.57052 47.97503,-48.27788 24.37889,-3.63858 64.93887,3.02512 82.24276,13.51187 6.79837,4.12006 6.93769,4.39037 3.91501,7.59686 -3.92874,4.16767 -6.24855,4.16846 -13.69198,0.006 -11.44946,-6.4047 -27.89492,-9.372 -52.59658,-9.49015 -18.41659,-0.0881 -25.10215,0.54466 -31.74121,3.00417 -9.83532,3.64357 -19.83529,13.53347 -23.00393,22.75073 -3.183,9.25894 -1.21252,23.51916 4.55552,32.96806 7.31377,11.98106 14.73038,14.41101 49.0326,16.0648 30.28045,1.45989 38.0369,3.27637 51.24608,12.00116 28.93507,19.11195 39.40593,62.89865 22.6573,94.74747 -9.39232,17.86021 -29.56783,32.43159 -52.10769,37.63376 -11.85655,2.73645 -33.07816,3.6811 -48.67717,2.16674 z"
         style="fill:#112233;fill-opacity:1" />
      <path
         inkscape:connector-curvature="0"
         id="path4136"
         d="m 343.12864,775.89625 c -16.02996,-3.63686 -26.27431,-7.43666 -33.69549,-12.49824 l -4.9808,-3.39717 4.34769,-3.28317 c 4.30533,-3.25119 4.44428,-3.24071 14.26238,1.07445 16.18205,7.1122 33.39629,9.79685 57.75422,9.00702 24.34796,-0.78951 31.97405,-3.36444 41.8074,-14.11624 9.65435,-10.55612 10.44343,-32.78902 1.61814,-45.59179 -7.64858,-11.09572 -12.61085,-12.68219 -44.32287,-14.17049 -30.60581,-1.43637 -42.34807,-4.23137 -56.19178,-13.3753 -27.44087,-18.12501 -38.34512,-62.29611 -22.84194,-92.52852 9.48248,-18.49156 25.49102,-31.08656 49.42172,-38.88336 4.9856,-1.62434 16.22509,-2.29597 36.79066,-2.19846 26.76007,0.12695 31.13689,0.58598 45.44517,4.76661 17.24409,5.03843 26.66382,9.19366 38.52612,16.99464 l 7.69797,5.0624 -4.77093,3.60277 c -4.19198,3.16557 -5.23502,3.31727 -8.5953,1.25012 -22.97111,-14.13128 -47.56016,-20.61799 -78.1561,-20.61799 -39.79404,0 -63.06937,10.88547 -75.61696,35.36472 -3.81473,7.44223 -4.39262,10.94964 -4.39262,26.66027 0,15.87701 0.56879,19.25015 4.64847,27.56666 12.36016,25.19647 31.02117,34.37624 69.99363,34.43141 30.31192,0.0429 45.15417,6.25511 54.77788,22.92711 4.69226,8.12881 5.17952,10.51493 5.17504,25.34147 -0.003,13.6107 -0.6771,17.57602 -3.99536,23.5412 -4.73869,8.5187 -16.208,17.77662 -27.40635,22.12209 -12.19903,4.73381 -48.36746,5.24317 -67.29999,0.94779 z"
         style="fill:#112233;fill-opacity:1" />
      <path
         inkscape:connector-curvature="0"
         id="path3362"
         d="m 356.47424,753.54933 c -12.27181,-1.65138 -30.39493,-6.99027 -30.39493,-8.95405 0,-0.79604 1.98829,-2.69803 4.41844,-4.22667 3.81501,-2.39975 5.34686,-2.47342 11.21667,-0.53948 4.17665,1.3761 15.90822,2.26648 30.42208,2.30887 22.57786,0.066 23.82941,-0.11592 28.26599,-4.10784 5.83158,-5.24712 5.91564,-11.12487 0.23704,-16.57642 -4.12819,-3.96317 -5.62283,-4.23086 -23.77933,-4.25889 -47.23124,-0.0729 -78.58186,-15.57633 -96.00191,-47.4745 -3.5852,-6.56492 -7.82492,-16.79696 -9.42158,-22.73786 -3.33142,-12.3956 -3.90093,-38.76224 -1.09675,-50.77484 6.08913,-26.08466 23.22932,-48.26602 47.50907,-61.48222 37.52346,-20.42512 102.28414,-19.34474 149.11159,2.4876 13.26013,6.18225 30.41545,17.84572 30.12559,20.4816 -0.0946,0.85942 -2.1273,2.70165 -4.51733,4.09386 -4.08718,2.38079 -4.87083,2.14378 -13.18222,-3.98701 -11.71295,-8.63991 -28.33791,-15.75768 -49.19609,-21.06269 -22.29056,-5.66932 -62.34167,-6.43172 -80.63709,-1.53497 -32.30293,8.64583 -54.46019,27.57696 -64.98803,55.52567 -4.63733,12.31092 -5.47784,37.87185 -1.72338,52.40986 6.92793,26.82622 25.63721,46.71259 53.58253,56.95368 8.10367,2.96972 16.09367,4.03773 37.55936,5.02045 29.07727,1.33119 33.37284,2.56296 39.31877,11.27479 4.15791,6.0921 3.86083,20.64847 -0.53951,26.4338 -5.64484,7.42158 -15.23361,10.91665 -31.6202,11.5254 -8.07604,0.30002 -19.17698,-0.0591 -24.66876,-0.79814 z"
         style="fill:#112233;fill-opacity:1" />
    </g>
  </g>
  <g
     inkscape:groupmode="layer"
     id="layer3"
     inkscape:label="Layer 3"
     style="display:inline">
    <text
       xml:space="preserve"
       style="font-style:normal;font-weight:normal;font-size:49.34568405px;line-height:125%;font-family:sans-serif;letter-spacing:0px;word-spacing:0px;display:inline;fill:#000000;fill-opacity:1;stroke:none;stroke-width:1.05419397px;stroke-linecap:butt;stroke-linejoin:miter;stroke-opacity:1"
       x="233.43214"
       y="534.92847"
       id="text4169"
       transform="scale(0.98607056,1.0141262)"><tspan
         sodipodi:role="line"
         id="tspan4171"
         x="233.43214"
         y="534.92847"
         style="font-style:normal;font-variant:normal;font-weight:bold;font-stretch:normal;font-size:527.09698486px;font-family:Consolas;-inkscape-font-specification:'Consolas Bold';fill:#ffffff;fill-opacity:1;stroke-width:1.05419397px">S</tspan></text>
  </g>
</svg>
